<svg xmlns="http://www.w3.org/2000/svg" width="64" height="64"><g transform="translate(0 -989.359)"><g transform="translate(-5 7.043)"><path fill="#263238" d="M14 1001.362h36c1.108 0 1.95.893 2 2v24H12v-24c0-1.108.892-2 2-2z"/><rect width="36" height="22" x="14" y="1003.362" fill="#03a9f4" rx="0" ry="0"/><path fill="#e9eded" d="M55 1027.362a2.95 2.95 0 0 1-2.957 2.957H11.957A2.95 2.95 0 0 1 9 1027.362Z" color="#000" overflow="visible" style="isolation:auto;mix-blend-mode:normal"/><path fill="#b0bec5" d="M36 1027.362c0 .554-.446 1-1 1h-6c-.554 0-1-.446-1-1h8z" color="#000" overflow="visible" style="isolation:auto;mix-blend-mode:normal"/><rect width="36" height="22" x="14" y="1003.362" fill="#03a9f4" rx="0" ry="0"/></g><g transform="translate(-27.014 -93.007)"><rect style="isolation:auto;mix-blend-mode:normal" width="5" height="7" x="85.014" y="1124.369" fill="#d22e2e" color="#000" overflow="visible" rx="1" ry="1"/><rect width="4" height="5" x="85.014" y="1125.369" fill="#fff" color="#000" overflow="visible" rx=".6" ry=".6" style="isolation:auto;mix-blend-mode:normal"/><path fill="#f44336" style="isolation:auto;mix-blend-mode:normal" d="M79.014 1122.37h8v10c0 .553-.446 1-1 1h-7c-.554 0-1-.447-1-1v-10z" color="#000" overflow="visible"/><path fill="#b0bec5" fill-rule="evenodd" style="line-height:normal;text-indent:0;text-align:start;text-decoration-line:none;text-decoration-style:solid;text-decoration-color:#000;text-transform:none;block-progression:tb;isolation:auto;mix-blend-mode:normal" d="M82.515 1120.368c-.676-.01-.676 1.01 0 1h2.992c.676.01.676-1.01 0-1zm-1-2c-.677-.01-.677 1.01 0 1h6.992c.676.01.676-1.01 0-1z" color="#000" font-family="sans-serif" font-weight="400" overflow="visible"/><path fill="#b0bec5" fill-rule="evenodd" style="line-height:normal;text-indent:0;text-align:start;text-decoration-line:none;text-decoration-style:solid;text-decoration-color:#000;text-transform:none;block-progression:tb;isolation:auto;mix-blend-mode:normal" d="M83.542 1119.37a.5.5 0 0 1-.014 1h1.994a.5.5 0 0 1-.035-1h-1.945zm-4.02-3c-.677-.01-.677 1.009 0 1h1c.676.01.676-1.01 0-1zm3-.002a.5.5 0 1 0 0 1h5a.5.5 0 1 0 0-1h-5z" color="#000" font-family="sans-serif" font-weight="400" overflow="visible"/><path fill="#b0bec5" fill-rule="evenodd" style="line-height:normal;text-indent:0;text-align:start;text-decoration-line:none;text-decoration-style:solid;text-decoration-color:#000;text-transform:none;block-progression:tb;isolation:auto;mix-blend-mode:normal" d="M84.506 1116.368a.5.5 0 1 0 0 1h5a.5.5 0 1 0 0-1h-5zM83.028 1117.37a.5.5 0 0 1-.014 1h1.994a.5.5 0 0 1-.035-1h-1.945zm3.006 0a.5.5 0 0 1-.014 1h1.994a.5.5 0 0 1-.035-1h-1.945zm1.473 3c-.676-.01-.676 1.009 0 1 .676.01.676-1.01 0-1z" color="#000" font-family="sans-serif" font-weight="400" overflow="visible"/><path fill="none" stroke="#f57c00" stroke-linecap="round" stroke-linejoin="round" d="M82.507 1112.87v-2m-1 1h2"/><circle style="isolation:auto;mix-blend-mode:normal" cx="86.514" cy="1113.869" r=".5" fill="#4caf50" color="#000" overflow="visible"/><path fill="none" stroke="#ffc107" stroke-linecap="round" stroke-linejoin="round" d="m88.095 1108.864 1.414-1.414m-1.414 0 1.414 1.414"/></g><path fill="none" stroke="#263238" stroke-linecap="round" stroke-linejoin="round" d="m5.995 1007.864-1-1m2.505-.002v-.993m-2.007 3.993H4.5"/><path fill="none" stroke="#f44336" stroke-linecap="round" stroke-linejoin="round" d="m2.58 1030.864 1.415-1.414m-1.414 0 1.414 1.414"/><path fill="none" stroke="#546e7a" stroke-linecap="round" stroke-linejoin="round" d="M14.493 1004.862v-2m-1 1h2"/><circle style="isolation:auto;mix-blend-mode:normal" cx="2.5" cy="1015.862" r="1" fill="none" stroke="#ffc107" stroke-linecap="round" stroke-linejoin="round" color="#000" overflow="visible"/></g></svg>